<svg xmlns="http://www.w3.org/2000/svg" width="78" height="72.016"><path fill="#FDBB11" d="M19.733 40.862a2 2 0 0 1-1.65-.868l-3.857-5.616-3.579 2.521a2 2 0 0 1-3.154-1.636V3.377a2.001 2.001 0 0 1 4.003 0v28.026l2.08-1.465a2 2 0 0 1 2.802.503l1.353 1.969V6.976a2.002 2.002 0 0 1 4.004 0v31.886a2.002 2.002 0 0 1-2.002 2z"/><path fill="#FDBB11" d="M35.998 72.016c-.199 0-.396-.029-.586-.088L4.418 62.436C1.489 61.551 0 59.581 0 56.582V5.005A5.01 5.01 0 0 1 5.004 0c.199 0 .397.029.586.088L36.583 9.58c2.743.912 4.418 3.24 4.418 6.091v51.34a5.009 5.009 0 0 1-5.003 5.005zM4.785 4.028c-.447.101-.781.5-.781.977v51.577c0 1.312.414 1.671 1.58 2.023l30.634 9.382c.447-.101.781-.5.781-.977V15.67c0-1.151-.549-1.917-1.633-2.278L4.785 4.028z"/><path fill="#FFE476" d="M39 67.011a3.002 3.002 0 0 0 3.003 3.003l30.993-9.492c1.66-.501 3.002-1.438 3.002-3.939V5.005a3.002 3.002 0 0 0-3.002-3.003l-30.993 9.492c-1.78.592-3.003 2.05-3.003 4.177v51.34z"/><path fill="#FDBB11" d="M42.003 72.016a5.01 5.01 0 0 1-5.005-5.005v-51.34c0-2.851 1.675-5.179 4.372-6.076L72.41.088c.19-.059.387-.088.586-.088A5.01 5.01 0 0 1 78 5.005v51.577c0 2.999-1.489 4.969-4.426 5.856l-30.985 9.489a1.983 1.983 0 0 1-.586.089zM73.215 4.028l-30.626 9.379c-1.038.347-1.587 1.112-1.587 2.264v51.34c0 .477.334.876.781.977l30.627-9.379c1.172-.355 1.586-.714 1.586-2.026V5.005c0-.477-.334-.876-.781-.977z"/></svg>