<svg xmlns="http://www.w3.org/2000/svg" width="78" height="72.016"><path d="M72.996 0c-.199 0-.396.029-.586.088L41.37 9.595a6.535 6.535 0 0 0-2.375 1.399 6.64 6.64 0 0 0-2.412-1.414L5.59.088A1.968 1.968 0 0 0 5.004 0 5.01 5.01 0 0 0 0 5.005v51.577c0 2.999 1.489 4.969 4.418 5.854l30.993 9.492c.19.059.387.088.586.088a4.958 4.958 0 0 0 3.002-1.026 4.957 4.957 0 0 0 3.003 1.026c.198 0 .396-.029.586-.088l30.985-9.489C76.511 61.551 78 59.581 78 56.582V5.005A5.01 5.01 0 0 0 72.996 0zm-61.5 6.083l6.235 1.909V32.41l-1.353-1.969a2.006 2.006 0 0 0-1.296-.838 2.017 2.017 0 0 0-1.506.335l-2.08 1.465V6.083zm24.721 61.904L5.583 58.605c-1.166-.353-1.58-.711-1.58-2.023V5.005c0-.477.334-.876.781-.977l2.708.829v30.405a2 2 0 0 0 3.154 1.636l3.579-2.521 3.857 5.616a2 2 0 0 0 2.243.778 2.002 2.002 0 0 0 1.409-1.911V9.219l13.63 4.174c1.084.361 1.633 1.127 1.633 2.278v51.34a1 1 0 0 1-.78.976z"/></svg>