<svg xmlns="http://www.w3.org/2000/svg" width="64" height="79.389"><path fill="#92CB7F" d="M61.913 32c0 20.43-22.651 45.302-29.913 45.302C24.261 77.302 2.087 52.43 2.087 32 2.087 15.479 15.479 2.087 32 2.087S61.913 15.479 61.913 32z"/><path fill="#05703C" d="M32 79.389C22.961 79.389 0 53.58 0 32 0 14.355 14.355 0 32 0s32 14.355 32 32c0 21.056-23.2 47.389-32 47.389zm0-75.215C16.657 4.174 4.174 16.656 4.174 32c0 19.218 21.405 43.215 27.826 43.215 5.571 0 27.826-23.051 27.826-43.215C59.826 16.656 47.343 4.174 32 4.174z"/><circle fill="#FFF" cx="32" cy="32" r="12.521"/><path fill="#05703C" d="M32 46.608c-8.055 0-14.608-6.553-14.608-14.608S23.945 17.392 32 17.392 46.608 23.945 46.608 32 40.055 46.608 32 46.608zm0-25.042c-5.753 0-10.434 4.681-10.434 10.434S26.247 42.434 32 42.434c5.754 0 10.434-4.681 10.434-10.434S37.754 21.566 32 21.566z"/></svg>