<svg xmlns="http://www.w3.org/2000/svg" width="61" height="78.645"><path fill="#3289C9" d="M33.945 24.031a3.023 3.023 0 0 0 3.024 3.024h22.014L33.945 2.017v22.014z"/><path fill="#1D3160" d="M58.983 29.072H36.969a5.048 5.048 0 0 1-5.041-5.041V2.017A2.016 2.016 0 0 1 35.37.592L60.409 25.63a2.017 2.017 0 0 1-1.426 3.442zM35.961 6.885v17.146c0 .556.452 1.008 1.008 1.008h17.146L35.961 6.885z"/><path fill="#1D3160" d="M55.958 78.645H5.042A5.048 5.048 0 0 1 0 73.604V5.041A5.048 5.048 0 0 1 5.042 0h28.903c.534 0 1.048.213 1.426.591L60.409 25.63c.379.378.591.891.591 1.426v46.548a5.047 5.047 0 0 1-5.042 5.041zM5.042 4.033c-.556 0-1.008.452-1.008 1.008v68.562c0 .556.452 1.008 1.008 1.008h50.917a1.01 1.01 0 0 0 1.009-1.008V27.891L33.11 4.033H5.042z"/><path fill="#3289C9" d="M15.754 47.641a2.006 2.006 0 0 1-1.425-.591l-3.025-3.025a2.016 2.016 0 1 1 2.852-2.852l3.024 3.025a2.016 2.016 0 0 1-1.426 3.443z"/><path fill="#3289C9" d="M15.754 47.641a2.016 2.016 0 0 1-1.425-3.443l6.049-6.05A2.016 2.016 0 1 1 23.23 41l-6.05 6.05c-.393.393-.91.591-1.426.591zm0 14.872a2.006 2.006 0 0 1-1.425-.591l-3.025-3.025a2.016 2.016 0 1 1 2.852-2.852l3.024 3.025a2.016 2.016 0 0 1-1.426 3.443z"/><path fill="#3289C9" d="M15.754 62.513a2.016 2.016 0 0 1-1.425-3.443l6.049-6.05a2.016 2.016 0 1 1 2.852 2.852l-6.05 6.05c-.393.393-.91.591-1.426.591z"/><path fill="#1D3160" d="M48.27 44.615H30.626a2.016 2.016 0 1 1 0-4.033H48.27a2.017 2.017 0 1 1 0 4.033zm0 14.872H30.626a2.016 2.016 0 1 1 0-4.034H48.27a2.018 2.018 0 1 1 0 4.034z"/></svg>