<svg xmlns="http://www.w3.org/2000/svg" width="72" height="83.886"><path d="M71.983 20.738c-.09-.824-.635-2.255-3.262-2.583-.771-.097-1.701-.148-2.687-.203-1.395-.078-3.938-.219-4.715-.575-.905-1.23-1.989-1.497-2.754-1.497-1.309 0-2.374.765-3.353 1.547-.454.364-.506.364-.6.364-.45 0-1.693-.336-4.953-2.585-4.299-2.965-8.671-4.736-11.694-4.736-.974 0-1.809.185-2.478.546-.284.154-.549.217-.915.217-.994 0-2.584-.488-4.997-1.329-1.479-.518-2.312-2.952-2.981-4.907-.715-2.09-1.333-3.895-2.955-4.598C23.029.134 22.436 0 21.875 0c-1.805 0-2.946 1.333-3.207 2.725l-.708 2.247c-.021.069-.04.139-.054.21L2.164 4.434a2.109 2.109 0 0 0-1.524.569c-.409.39-.64.93-.64 1.495C0 8.041.375 9.058.649 9.8c.173.469.257.706.257.964 0 .224-.063.438-.206.899-.279.905-.7 2.272-.7 4.856 0 2.344.755 4.513 1.422 6.425.466 1.337.906 2.6.906 3.467 0 .43-.01 1.044-.023 1.783-.097 5.702-.107 11.471.892 13.879 1.7 4.098.213 6.599.225 6.599v-.001l-.088.096c-.63.682-2.304 2.492-2.148 4.805.06.887.425 2.187 1.828 3.345 1.72 1.419 1.77 3.041 1.773 3.041l-.906 21.776a2.067 2.067 0 0 0 2.064 2.152h51.14a2.066 2.066 0 0 0 2.062-2.383c-.153-7.106-5.467-10.644-9.749-13.495l-1.048-.702c-2.643-1.786-3.765-2.866-4.199-3.35v-3.343c0-1.393.246-2.104.273-2.19 1.347-2.299.332-4.328-.743-5.207-.097-.09-.313-.307-.301-.437.05-.54 1.089-1.689 2.741-2.68 1.947-1.168 2.555-2.873 2.491-4.043v-4.992c6.969-8.189 15.35-14.658 18.412-15.748 2.257-.801 5.224-2.15 4.959-4.578z"/></svg>