<svg xmlns="http://www.w3.org/2000/svg" width="72" height="83.886"><path fill="#F26F39" d="M2.065 6.498l16.313.774s1.552.39 1.552-1.679l.756-2.393s.194-1.745 2.133-.905c1.94.841 2.002 8.136 6.076 9.559 4.073 1.422 5.902 1.885 7.575.98 1.672-.906 6.393.192 12.017 4.073 5.624 3.879 6.724 3.168 8.017 2.133 1.293-1.034 2.328-1.681 3.233-.324.904 1.359 6.142 1.164 8.728 1.488 2.586.323 1.681 1.81-2.134 3.168C62.517 24.728 53.4 32.1 46.548 40.31v5.82s.129 1.228-1.488 2.197c-1.616.969-5.624 3.88-2.714 6.466 0 0 1.292.969.258 2.651 0 0-.517.969-.517 3.168v4.007s.517 1.293 5.108 4.397c4.59 3.103 9.891 6.077 9.891 12.802H5.945l.905-21.774s.064-2.586-2.521-4.721c-2.586-2.134.194-4.774.647-5.292.452-.516 2.162-3.849.129-8.75-1.099-2.651-.711-12.22-.711-14.871s-2.328-6.207-2.328-9.892c0-3.685.906-4.333.906-5.754-.001-1.421-.907-2.133-.907-4.266z"/><path fill="#C13D27" d="M57.106 83.886a.074.074 0 0 0-.021 0H5.945a2.067 2.067 0 0 1-2.064-2.152l.905-21.776c-.003 0-.053-1.622-1.773-3.041-1.403-1.158-1.768-2.458-1.828-3.345-.156-2.313 1.518-4.124 2.148-4.805l.088-.096v.001c-.012 0 1.475-2.501-.225-6.599-.999-2.408-.988-8.177-.892-13.879.013-.739.023-1.354.023-1.783 0-.867-.439-2.129-.906-3.467C.755 21.032 0 18.863 0 16.519c0-2.584.421-3.951.7-4.855.142-.462.206-.676.206-.899 0-.258-.083-.495-.257-.964C.375 9.058 0 8.041 0 6.498c0-.565.231-1.105.64-1.495.409-.39.961-.586 1.524-.569l15.742.748c.015-.071.033-.141.054-.21l.709-2.247C18.929 1.333 20.071 0 21.875 0c.56 0 1.154.134 1.765.399 1.622.703 2.24 2.508 2.955 4.598.669 1.956 1.502 4.39 2.981 4.907 2.412.841 4.002 1.329 4.997 1.329.366 0 .631-.062.915-.217.669-.362 1.504-.546 2.478-.546 3.023 0 7.395 1.771 11.694 4.736 3.26 2.25 4.503 2.585 4.953 2.585.094 0 .146 0 .6-.364.979-.783 2.044-1.547 3.353-1.547.765 0 1.849.267 2.754 1.497.776.356 3.32.497 4.715.575.985.055 1.916.106 2.687.203 2.627.328 3.172 1.759 3.262 2.583.265 2.428-2.702 3.776-4.958 4.58-3.062 1.089-11.443 7.558-18.412 15.748v4.992c.063 1.17-.544 2.875-2.491 4.043-1.651.99-2.69 2.14-2.741 2.68-.012.13.205.347.301.437 1.075.878 2.09 2.908.743 5.207-.027.086-.273.797-.273 2.19v3.343c.434.484 1.557 1.563 4.199 3.35l1.048.702c4.281 2.851 9.595 6.389 9.749 13.495a2.068 2.068 0 0 1-2.043 2.381zM8.098 79.754h46.699c-.855-3.757-4.06-5.892-7.688-8.307l-1.072-.717c-3.299-2.231-5.383-4.127-5.869-5.341a2.058 2.058 0 0 1-.148-.768v-4.007c0-2.521.583-3.808.761-4.142.02-.037.04-.073.062-.108a1.31 1.31 0 0 0 .053-.095c-1.513-1.387-1.723-2.868-1.629-3.873.258-2.768 3.074-4.848 4.729-5.84.345-.207.454-.375.485-.435V40.31c0-.484.17-.952.479-1.324 6.005-7.195 14.436-14.534 19.383-17-2.939-.205-4.929-.545-6.021-1.738-.138.098-.31.229-.529.404-.593.474-1.585 1.269-3.181 1.269-1.771 0-3.885-.961-7.299-3.315-4.286-2.958-7.714-4.006-9.348-4.006-.382 0-.53.059-.532.06-.869.471-1.811.704-2.861.704-1.597 0-3.394-.526-6.359-1.561-3.375-1.179-4.619-4.815-5.528-7.47-.125-.367-.28-.819-.436-1.23l-.265.841c-.144 2.36-1.74 3.422-3.322 3.422-.2 0-.375-.017-.515-.039L4.641 8.688c.198.559.396 1.235.396 2.076 0 .856-.198 1.497-.389 2.117-.242.786-.517 1.676-.517 3.637 0 1.645.606 3.384 1.192 5.066.584 1.676 1.136 3.259 1.136 4.826 0 .447-.011 1.085-.024 1.853-.047 2.848-.175 10.411.578 12.227 2.377 5.732.398 9.896-.482 10.903l-.163.18c-.954 1.031-1.073 1.521-1.06 1.722.01.152.238.356.335.436 3.267 2.697 3.281 5.999 3.272 6.366l-.817 19.657z"/></svg>