<svg xmlns="http://www.w3.org/2000/svg" width="61" height="78.645"><path d="M60.787 26.172a1.274 1.274 0 0 0-.062-.115 1.984 1.984 0 0 0-.316-.427L35.371.591a1.95 1.95 0 0 0-.544-.377A2.007 2.007 0 0 0 34.34.04h-.006a1.938 1.938 0 0 0-.389-.04H5.042A5.048 5.048 0 0 0 0 5.041v68.562a5.048 5.048 0 0 0 5.042 5.041h50.917a5.048 5.048 0 0 0 5.042-5.041V27.056c-.001-.31-.08-.61-.214-.884zm-4.829 48.439H5.042a1.009 1.009 0 0 1-1.008-1.008V5.041c0-.556.452-1.008 1.008-1.008h26.887v19.998a5.048 5.048 0 0 0 5.041 5.041h19.998v44.531a1.011 1.011 0 0 1-1.01 1.008z"/><path d="M20.378 38.148l-4.624 4.624-1.599-1.6a2.018 2.018 0 0 0-2.852 2.852l3.025 3.025c.393.394.91.591 1.425.591.516 0 1.033-.197 1.426-.591l6.05-6.05a2.016 2.016 0 1 0-2.851-2.851zm0 14.873l-4.624 4.624-1.599-1.6a2.018 2.018 0 0 0-2.852 2.852l3.025 3.025c.393.394.91.591 1.425.591.516 0 1.033-.197 1.426-.591l6.05-6.05a2.016 2.016 0 1 0-2.851-2.851zM48.27 40.583H30.626a2.016 2.016 0 1 0 0 4.033H48.27a2.017 2.017 0 1 0 0-4.033zm0 14.871H30.626a2.017 2.017 0 1 0 0 4.034H48.27a2.017 2.017 0 1 0 0-4.034z"/></svg>