<svg xmlns="http://www.w3.org/2000/svg" width="14" height="13.999"><path d="M13.66 12.017l-3.581-3.581a5.441 5.441 0 0 0 .875-2.959A5.483 5.483 0 0 0 5.477 0 5.483 5.483 0 0 0 0 5.477a5.483 5.483 0 0 0 5.477 5.478c1.09 0 2.104-.324 2.959-.875l3.58 3.58a1.16 1.16 0 0 0 1.643 0 1.16 1.16 0 0 0 .001-1.643zM2.324 5.477a3.157 3.157 0 0 1 3.153-3.153A3.157 3.157 0 0 1 8.63 5.477a3.14 3.14 0 0 1-.899 2.2c-.01.01-.02.016-.029.024s-.016.021-.023.03a3.148 3.148 0 0 1-2.202.899 3.157 3.157 0 0 1-3.153-3.153z"/></svg>